<svg id="visual" viewBox="0 0 900 600" width="900" height="600" xmlns="http://www.w3.org/2000/svg" xmlns:xlink="http://www.w3.org/1999/xlink" version="1.1"><rect x="0" y="0" width="900" height="600" fill="#001220"></rect><path d="M0 388L21.5 394.8C43 401.7 86 415.3 128.8 412.5C171.7 409.7 214.3 390.3 257.2 382C300 373.7 343 376.3 385.8 388.8C428.7 401.3 471.3 423.7 514.2 432.8C557 442 600 438 642.8 435.2C685.7 432.3 728.3 430.7 771.2 417C814 403.3 857 377.7 878.5 364.8L900 352L900 601L878.5 601C857 601 814 601 771.2 601C728.3 601 685.7 601 642.8 601C600 601 557 601 514.2 601C471.3 601 428.7 601 385.8 601C343 601 300 601 257.2 601C214.3 601 171.7 601 128.8 601C86 601 43 601 21.5 601L0 601Z" fill="#fa7268"></path><path d="M0 453L21.5 448.8C43 444.7 86 436.3 128.8 429.2C171.7 422 214.3 416 257.2 422.3C300 428.7 343 447.3 385.8 454C428.7 460.7 471.3 455.3 514.2 443.8C557 432.3 600 414.7 642.8 417C685.7 419.3 728.3 441.7 771.2 446.2C814 450.7 857 437.3 878.5 430.7L900 424L900 601L878.5 601C857 601 814 601 771.2 601C728.3 601 685.7 601 642.8 601C600 601 557 601 514.2 601C471.3 601 428.7 601 385.8 601C343 601 300 601 257.2 601C214.3 601 171.7 601 128.8 601C86 601 43 601 21.5 601L0 601Z" fill="#ef5f67"></path><path d="M0 502L21.5 500.2C43 498.3 86 494.7 128.8 484.7C171.7 474.7 214.3 458.3 257.2 458.2C300 458 343 474 385.8 481.5C428.7 489 471.3 488 514.2 481.7C557 475.3 600 463.7 642.8 461.8C685.7 460 728.3 468 771.2 468C814 468 857 460 878.5 456L900 452L900 601L878.5 601C857 601 814 601 771.2 601C728.3 601 685.7 601 642.8 601C600 601 557 601 514.2 601C471.3 601 428.7 601 385.8 601C343 601 300 601 257.2 601C214.3 601 171.7 601 128.8 601C86 601 43 601 21.5 601L0 601Z" fill="#e34c67"></path><path d="M0 504L21.5 510C43 516 86 528 128.8 531.2C171.7 534.3 214.3 528.7 257.2 519.5C300 510.3 343 497.7 385.8 499.8C428.7 502 471.3 519 514.2 518.2C557 517.3 600 498.7 642.8 499.3C685.7 500 728.3 520 771.2 523.5C814 527 857 514 878.5 507.5L900 501L900 601L878.5 601C857 601 814 601 771.2 601C728.3 601 685.7 601 642.8 601C600 601 557 601 514.2 601C471.3 601 428.7 601 385.8 601C343 601 300 601 257.2 601C214.3 601 171.7 601 128.8 601C86 601 43 601 21.5 601L0 601Z" fill="#d53867"></path><path d="M0 535L21.5 536.5C43 538 86 541 128.8 546.8C171.7 552.7 214.3 561.3 257.2 562.7C300 564 343 558 385.8 558.3C428.7 558.7 471.3 565.3 514.2 560.7C557 556 600 540 642.8 535.7C685.7 531.3 728.3 538.7 771.2 546.3C814 554 857 562 878.5 566L900 570L900 601L878.5 601C857 601 814 601 771.2 601C728.3 601 685.7 601 642.8 601C600 601 557 601 514.2 601C471.3 601 428.7 601 385.8 601C343 601 300 601 257.2 601C214.3 601 171.7 601 128.8 601C86 601 43 601 21.5 601L0 601Z" fill="#c62368"></path></svg>